<mxfile modified="2024-05-21T18:06:04.939Z" host="app.diagrams.net" agent="Mozilla/5.0 (Windows NT 10.0; Win64; x64) AppleWebKit/537.36 (KHTML, like Gecko) Chrome/124.0.0.0 Safari/537.36" etag="623s7VBDdL-jKnyvNKy5" version="24.4.4" type="device">
  <diagram id="l2aKFoh6-Bn0gOPZ2l0T" name="Page-1">
    <mxGraphModel dx="880" dy="460" grid="1" gridSize="10" guides="1" tooltips="1" connect="1" arrows="1" fold="1" page="1" pageScale="1" pageWidth="1169" pageHeight="827" math="0" shadow="0">
      <root>
        <mxCell id="0" />
        <mxCell id="1" parent="0" />
        <mxCell id="mpq5AgpwV83IM184FDqD-40" value="Protótipo Clínica&lt;div&gt;&lt;br&gt;&lt;/div&gt;" style="text;html=1;resizable=1;points=[];autosize=0;align=left;verticalAlign=top;spacingTop=-4;fontSize=20;fontStyle=1" parent="1" vertex="1">
          <mxGeometry x="40" y="10" width="580" height="30" as="geometry" />
        </mxCell>
        <mxCell id="n9lQ7RAclSgP6i93dSD8-1" value="" style="shape=image;verticalLabelPosition=bottom;verticalAlign=top;imageAspect=0;image=https://jgraph.github.io/drawio-libs/libs/arista/DCS-7308.svg;html=1;verticalLabelPosition=bottom;labelBackgroundColor=#ffffff;verticalAlign=top;outlineConnect=0;container=1;collapsible=0;childLayout=rack;rackUnitSize=16.7;allowGaps=1;marginLeft=8;marginRight=8;marginTop=27;marginBottom=22;textColor=#666666;aspect=fixed;" parent="1" vertex="1">
          <mxGeometry x="310" y="186" width="199.09" height="240" as="geometry" />
        </mxCell>
        <mxCell id="n9lQ7RAclSgP6i93dSD8-14" value="" style="fontColor=#0066CC;verticalAlign=top;verticalLabelPosition=bottom;labelPosition=center;align=center;html=1;outlineConnect=0;fillColor=#CCCCCC;strokeColor=#6881B3;gradientColor=none;gradientDirection=north;strokeWidth=2;shape=mxgraph.networks.modem;" parent="n9lQ7RAclSgP6i93dSD8-1" vertex="1">
          <mxGeometry x="8" y="27" width="183.09" height="33.4" as="geometry" />
        </mxCell>
        <mxCell id="n9lQ7RAclSgP6i93dSD8-15" value="" style="strokeColor=#dddddd;shadow=1;strokeWidth=1;rounded=1;absoluteArcSize=1;arcSize=2;" parent="n9lQ7RAclSgP6i93dSD8-1" vertex="1">
          <mxGeometry x="8" y="60.4" width="183.09" height="50.099999999999994" as="geometry" />
        </mxCell>
        <mxCell id="n9lQ7RAclSgP6i93dSD8-16" value="&lt;div&gt;&lt;span style=&quot;background-color: initial;&quot;&gt;Firewall Rules&lt;/span&gt;&lt;br&gt;&lt;/div&gt;" style="editableCssRules=.*;html=1;fontColor=#999999;shape=image;verticalLabelPosition=middle;verticalAlign=middle;labelPosition=right;align=left;spacingLeft=20;part=1;points=[];imageAspect=0;image=data:image/svg+xml,PHN2ZyB4bWxucz0iaHR0cDovL3d3dy53My5vcmcvMjAwMC9zdmciIHhtbG5zOnY9Imh0dHBzOi8vdmVjdGEuaW8vbmFubyIgd2lkdGg9IjIwIiBoZWlnaHQ9IjIwIiBmaWxsPSIjNDI4NWY0IiB2aWV3Qm94PSIwIDAgMjAgMjAiPiYjeGE7CTxzdHlsZSB0eXBlPSJ0ZXh0L2NzcyI+JiN4YTsJLnN0MHtmaWxsOiM0Mjg1ZjQ7fSYjeGE7CTwvc3R5bGU+JiN4YTsJPHBhdGggY2xhc3M9InN0MCIgZD0iTTAgMGg4Ljg5djIuMjJIMHptMCAxNy43OGg4Ljg5VjIwSDB6bTAtOC44OWg4Ljg5djIuMjJIMHpNMTEuMTEgMEgyMHYyLjIyaC04Ljg5em0wIDE3Ljc4SDIwVjIwaC04Ljg5em0wLTguODlIMjB2Mi4yMmgtOC44OXpNNS41NSA0LjQ0aDguODl2Mi4yMkg1LjU1em0wIDguODloOC44OXYyLjIySDUuNTV6TTAgNC40NGgzLjMzdjIuMjJIMHptMCA4Ljg5aDMuMzN2Mi4yMkgwem0xNi42Ny04Ljg5SDIwdjIuMjJoLTMuMzN6bTAgOC44OUgyMHYyLjIyaC0zLjMzeiIvPiYjeGE7PC9zdmc+;" parent="n9lQ7RAclSgP6i93dSD8-15" vertex="1">
          <mxGeometry width="30" height="30" relative="1" as="geometry">
            <mxPoint x="15" y="15" as="offset" />
          </mxGeometry>
        </mxCell>
        <mxCell id="n9lQ7RAclSgP6i93dSD8-19" value="" style="strokeColor=#dddddd;shadow=1;strokeWidth=1;rounded=1;absoluteArcSize=1;arcSize=2;" parent="n9lQ7RAclSgP6i93dSD8-1" vertex="1">
          <mxGeometry x="8" y="110.5" width="183.09" height="50.099999999999994" as="geometry" />
        </mxCell>
        <mxCell id="n9lQ7RAclSgP6i93dSD8-20" value="Roteador" style="editableCssRules=.*;html=1;fontColor=#999999;shape=image;verticalLabelPosition=middle;verticalAlign=middle;labelPosition=right;align=left;spacingLeft=20;part=1;points=[];imageAspect=0;image=data:image/svg+xml,PHN2ZyB4bWxucz0iaHR0cDovL3d3dy53My5vcmcvMjAwMC9zdmciIHhtbG5zOnY9Imh0dHBzOi8vdmVjdGEuaW8vbmFubyIgd2lkdGg9IjIwIiBoZWlnaHQ9IjIwIiB2aWV3Qm94PSIwIDAgMjAgMjAiPiYjeGE7CTxzdHlsZSB0eXBlPSJ0ZXh0L2NzcyI+JiN4YTsJLnN0MHtmaWxsOiM0Mjg1ZjQ7fSYjeGE7CTwvc3R5bGU+JiN4YTsJPHBhdGggY2xhc3M9InN0MCIgZD0iTTE3IDEydjNsLTUtNSA1LTV2M2gzdjR6TTMgOEgwdjRoM3YzbDUtNS01LTV6bTkgN3YtM0g4djNINWw1IDUgNS01em0wLTEwdjNIOFY1SDVsNS01IDUgNXoiLz4mI3hhOzwvc3ZnPg==;" parent="n9lQ7RAclSgP6i93dSD8-19" vertex="1">
          <mxGeometry width="30" height="30" relative="1" as="geometry">
            <mxPoint x="15" y="15" as="offset" />
          </mxGeometry>
        </mxCell>
        <mxCell id="n9lQ7RAclSgP6i93dSD8-21" value="" style="verticalLabelPosition=bottom;verticalAlign=top;html=1;shadow=0;dashed=0;strokeWidth=1;shape=mxgraph.android.switch_on;fillColor=#666666;sketch=0;" parent="n9lQ7RAclSgP6i93dSD8-1" vertex="1">
          <mxGeometry x="8" y="160.6" width="183.09" height="16.7" as="geometry" />
        </mxCell>
        <mxCell id="2V2FZD3Mjcm-NeNFaCNT-10" value="Switch 24" style="text;html=1;align=center;verticalAlign=middle;resizable=0;points=[];autosize=1;fontColor=#F7F7F7;" vertex="1" parent="n9lQ7RAclSgP6i93dSD8-1">
          <mxGeometry x="8" y="177.29999999999998" width="183.09" height="33.4" as="geometry" />
        </mxCell>
        <mxCell id="n9lQ7RAclSgP6i93dSD8-23" value="" style="shape=image;verticalLabelPosition=bottom;verticalAlign=top;imageAspect=0;image=https://jgraph.github.io/drawio-libs/libs/arista/DCS-7050SX-64.svg;aspect=fixed;" parent="n9lQ7RAclSgP6i93dSD8-1" vertex="1">
          <mxGeometry x="8" y="210.7" width="183.09" height="16.7" as="geometry" />
        </mxCell>
        <mxCell id="n9lQ7RAclSgP6i93dSD8-2" value="" style="verticalLabelPosition=bottom;sketch=0;aspect=fixed;html=1;verticalAlign=top;strokeColor=none;align=center;outlineConnect=0;shape=mxgraph.citrix.printer;" parent="1" vertex="1">
          <mxGeometry x="680" y="26.599999999999987" width="70" height="70" as="geometry" />
        </mxCell>
        <mxCell id="n9lQ7RAclSgP6i93dSD8-3" value="" style="image;aspect=fixed;html=1;points=[];align=center;fontSize=12;image=img/lib/azure2/management_governance/Managed_Desktop.svg;" parent="1" vertex="1">
          <mxGeometry x="590" y="30" width="68" height="63.2" as="geometry" />
        </mxCell>
        <mxCell id="n9lQ7RAclSgP6i93dSD8-4" value="" style="image;sketch=0;aspect=fixed;html=1;points=[];align=center;fontSize=12;image=img/lib/mscae/Managed_Desktop.svg;" parent="1" vertex="1">
          <mxGeometry x="260" y="66.59999999999998" width="50" height="36" as="geometry" />
        </mxCell>
        <mxCell id="n9lQ7RAclSgP6i93dSD8-5" value="" style="image;aspect=fixed;html=1;points=[];align=center;fontSize=12;image=img/lib/azure2/management_governance/Managed_Desktop.svg;" parent="1" vertex="1">
          <mxGeometry x="710" y="216.8" width="68" height="63.2" as="geometry" />
        </mxCell>
        <mxCell id="2V2FZD3Mjcm-NeNFaCNT-8" style="edgeStyle=orthogonalEdgeStyle;rounded=0;orthogonalLoop=1;jettySize=auto;html=1;entryX=1;entryY=0.75;entryDx=0;entryDy=0;" edge="1" parent="1" source="n9lQ7RAclSgP6i93dSD8-6" target="n9lQ7RAclSgP6i93dSD8-23">
          <mxGeometry relative="1" as="geometry" />
        </mxCell>
        <mxCell id="n9lQ7RAclSgP6i93dSD8-6" value="" style="image;aspect=fixed;html=1;points=[];align=center;fontSize=12;image=img/lib/azure2/management_governance/Managed_Desktop.svg;" parent="1" vertex="1">
          <mxGeometry x="500" y="30" width="68" height="63.2" as="geometry" />
        </mxCell>
        <mxCell id="2V2FZD3Mjcm-NeNFaCNT-7" style="edgeStyle=orthogonalEdgeStyle;rounded=0;orthogonalLoop=1;jettySize=auto;html=1;entryX=0.75;entryY=1;entryDx=0;entryDy=0;" edge="1" parent="1" source="n9lQ7RAclSgP6i93dSD8-7" target="n9lQ7RAclSgP6i93dSD8-23">
          <mxGeometry relative="1" as="geometry" />
        </mxCell>
        <mxCell id="n9lQ7RAclSgP6i93dSD8-7" value="" style="image;aspect=fixed;html=1;points=[];align=center;fontSize=12;image=img/lib/azure2/management_governance/Managed_Desktop.svg;" parent="1" vertex="1">
          <mxGeometry x="622" y="216.8" width="68" height="63.2" as="geometry" />
        </mxCell>
        <mxCell id="n9lQ7RAclSgP6i93dSD8-8" value="" style="image;sketch=0;aspect=fixed;html=1;points=[];align=center;fontSize=12;image=img/lib/mscae/Managed_Desktop.svg;" parent="1" vertex="1">
          <mxGeometry x="50" y="183.6" width="50" height="36" as="geometry" />
        </mxCell>
        <mxCell id="n9lQ7RAclSgP6i93dSD8-9" value="" style="image;sketch=0;aspect=fixed;html=1;points=[];align=center;fontSize=12;image=img/lib/mscae/Managed_Desktop.svg;" parent="1" vertex="1">
          <mxGeometry x="50" y="233.2" width="50" height="36" as="geometry" />
        </mxCell>
        <mxCell id="n9lQ7RAclSgP6i93dSD8-10" value="" style="image;sketch=0;aspect=fixed;html=1;points=[];align=center;fontSize=12;image=img/lib/mscae/Managed_Desktop.svg;" parent="1" vertex="1">
          <mxGeometry x="50" y="280" width="50" height="36" as="geometry" />
        </mxCell>
        <mxCell id="n9lQ7RAclSgP6i93dSD8-11" value="" style="image;sketch=0;aspect=fixed;html=1;points=[];align=center;fontSize=12;image=img/lib/mscae/Managed_Desktop.svg;" parent="1" vertex="1">
          <mxGeometry x="120" y="183.6" width="50" height="36" as="geometry" />
        </mxCell>
        <mxCell id="2V2FZD3Mjcm-NeNFaCNT-6" style="edgeStyle=orthogonalEdgeStyle;rounded=0;orthogonalLoop=1;jettySize=auto;html=1;entryX=0.25;entryY=1;entryDx=0;entryDy=0;" edge="1" parent="1" source="n9lQ7RAclSgP6i93dSD8-12" target="n9lQ7RAclSgP6i93dSD8-23">
          <mxGeometry relative="1" as="geometry" />
        </mxCell>
        <mxCell id="n9lQ7RAclSgP6i93dSD8-12" value="" style="image;sketch=0;aspect=fixed;html=1;points=[];align=center;fontSize=12;image=img/lib/mscae/Managed_Desktop.svg;" parent="1" vertex="1">
          <mxGeometry x="120" y="233.2" width="50" height="36" as="geometry" />
        </mxCell>
        <mxCell id="n9lQ7RAclSgP6i93dSD8-13" value="" style="image;sketch=0;aspect=fixed;html=1;points=[];align=center;fontSize=12;image=img/lib/mscae/Managed_Desktop.svg;" parent="1" vertex="1">
          <mxGeometry x="120" y="280" width="50" height="36" as="geometry" />
        </mxCell>
        <mxCell id="n9lQ7RAclSgP6i93dSD8-24" value="24 Patch Cords" style="text;html=1;align=center;verticalAlign=middle;resizable=0;points=[];autosize=1;strokeColor=none;fillColor=none;" parent="1" vertex="1">
          <mxGeometry x="40" y="36.6" width="110" height="30" as="geometry" />
        </mxCell>
        <mxCell id="n9lQ7RAclSgP6i93dSD8-25" value="12 Conexões (Fêmea)" style="text;html=1;align=center;verticalAlign=middle;resizable=0;points=[];autosize=1;strokeColor=none;fillColor=none;" parent="1" vertex="1">
          <mxGeometry x="40" y="53.19999999999999" width="140" height="30" as="geometry" />
        </mxCell>
        <mxCell id="n9lQ7RAclSgP6i93dSD8-26" value="1 Caixa (Cat 100)" style="text;html=1;align=center;verticalAlign=middle;resizable=0;points=[];autosize=1;strokeColor=none;fillColor=none;" parent="1" vertex="1">
          <mxGeometry x="40" y="76.6" width="120" height="30" as="geometry" />
        </mxCell>
        <mxCell id="2V2FZD3Mjcm-NeNFaCNT-9" style="edgeStyle=orthogonalEdgeStyle;rounded=0;orthogonalLoop=1;jettySize=auto;html=1;entryX=0;entryY=0.25;entryDx=0;entryDy=0;" edge="1" parent="1" source="2V2FZD3Mjcm-NeNFaCNT-1" target="n9lQ7RAclSgP6i93dSD8-23">
          <mxGeometry relative="1" as="geometry" />
        </mxCell>
        <mxCell id="2V2FZD3Mjcm-NeNFaCNT-1" value="Computador Raio X" style="text;html=1;align=center;verticalAlign=middle;resizable=0;points=[];autosize=1;strokeColor=none;fillColor=none;" vertex="1" parent="1">
          <mxGeometry x="220" y="106.6" width="130" height="30" as="geometry" />
        </mxCell>
        <mxCell id="2V2FZD3Mjcm-NeNFaCNT-2" value="Administra&lt;span style=&quot;background-color: initial;&quot;&gt;ção&lt;/span&gt;" style="text;html=1;align=center;verticalAlign=middle;resizable=0;points=[];autosize=1;strokeColor=none;fillColor=none;" vertex="1" parent="1">
          <mxGeometry x="574" width="100" height="30" as="geometry" />
        </mxCell>
        <mxCell id="2V2FZD3Mjcm-NeNFaCNT-3" value="" style="verticalLabelPosition=bottom;sketch=0;aspect=fixed;html=1;verticalAlign=top;strokeColor=none;align=center;outlineConnect=0;shape=mxgraph.citrix.printer;" vertex="1" parent="1">
          <mxGeometry x="790" y="210" width="70" height="70" as="geometry" />
        </mxCell>
        <mxCell id="2V2FZD3Mjcm-NeNFaCNT-4" value="Recepção" style="text;html=1;align=center;verticalAlign=middle;resizable=0;points=[];autosize=1;strokeColor=none;fillColor=none;" vertex="1" parent="1">
          <mxGeometry x="698" y="180" width="80" height="30" as="geometry" />
        </mxCell>
        <mxCell id="2V2FZD3Mjcm-NeNFaCNT-5" value="Computadores das cabines" style="text;html=1;align=center;verticalAlign=middle;resizable=0;points=[];autosize=1;strokeColor=none;fillColor=none;" vertex="1" parent="1">
          <mxGeometry x="25" y="330" width="170" height="30" as="geometry" />
        </mxCell>
      </root>
    </mxGraphModel>
  </diagram>
</mxfile>
